<svg width="120" height="22" viewBox="0 0 120 22" fill="none" xmlns="http://www.w3.org/2000/svg">
<path d="M24.4309 0.00449181C24.7746 0.0791398 25.1138 0.149122 25.4644 0.237767C29.521 1.17087 32.4076 5.07822 32.255 9.43113C32.1025 13.7467 28.9542 17.4161 24.8384 18.0413C22.5835 18.4133 20.2749 17.8911 18.3824 16.581V22H15.2386V0.701982H18.3801V1.56977L19.0107 1.19186C19.9742 0.608741 21.0441 0.234023 22.1544 0.0908024C22.2638 0.0688968 22.3718 0.0400722 22.4777 0.00449181H24.4309ZM18.3824 9.05556C18.3824 9.85336 18.371 10.6512 18.3824 11.4466C18.3879 11.6595 18.4442 11.8677 18.5463 12.0531C19.1703 13.1294 20.1168 13.9704 21.2448 14.4512C22.3728 14.9319 23.6221 15.0266 24.8069 14.7213C25.9917 14.4159 27.0486 13.7268 27.8205 12.7564C28.5923 11.786 29.0378 10.5862 29.0908 9.33549C29.1432 8.06436 28.791 6.8102 28.0872 5.76208C27.3834 4.71396 26.3662 3.92868 25.1889 3.52461C24.0078 3.12717 22.7316 3.14037 21.5585 3.56216C20.3854 3.98396 19.3809 4.79076 18.7011 5.85736C18.518 6.17584 18.414 6.5355 18.3983 6.90476C18.3505 7.62325 18.3846 8.34174 18.3846 9.05556H18.3824Z" fill="#1F1F1F"/>
<path d="M43.0253 0.00467006C43.4094 0.0644679 43.7895 0.148605 44.1635 0.256604C45.1628 0.613515 46.1508 1.00309 47.1661 1.38799L47.2048 0.688164H50.3144V17.4326H47.1957L47.1479 16.5975C47.0022 16.6745 46.8929 16.7258 46.7905 16.7911C45.7131 17.4695 44.508 17.9068 43.2542 18.0745C42.0004 18.2422 40.7261 18.1365 39.5149 17.7642C38.3037 17.392 37.183 16.7617 36.2262 15.9146C35.2693 15.0675 34.498 14.0227 33.9627 12.8488C31.4928 7.35517 34.9461 0.909776 40.7921 0.0839827C40.8857 0.0627755 40.9778 0.0347067 41.0675 0L43.0253 0.00467006ZM47.1752 9.06274C47.1422 8.59664 47.146 8.12856 47.1866 7.66309C47.3983 6.35441 46.7541 5.4493 45.8572 4.70749C45.3234 4.25472 44.7214 3.89388 44.0747 3.63909C42.0578 2.89961 40.141 3.13522 38.4541 4.5582C36.7309 6.01617 36.0753 7.92202 36.4577 10.1568C36.6662 11.2725 37.188 12.3015 37.9592 13.1174C38.7304 13.9334 39.7174 14.5008 40.7989 14.75C41.9352 15.0102 43.1217 14.9127 44.203 14.4702C45.2843 14.0278 46.21 13.261 46.8588 12.2703C47.0413 11.9651 47.1454 11.6177 47.1616 11.2602C47.2071 10.5254 47.1752 9.79289 47.1752 9.06274Z" fill="#1F1F1F"/>
<path d="M114.277 0.00449181L115.272 0.198107C116.783 0.489951 118.213 1.11652 119.463 2.03398L117.369 4.4927C116.133 3.78121 114.865 3.23535 113.474 3.28434C112.782 3.29193 112.1 3.451 111.473 3.75089C110.173 4.43438 110.196 5.94601 111.491 6.6365C112.15 6.94608 112.836 7.19208 113.54 7.37132C114.409 7.63725 115.293 7.83787 116.164 8.1038C119.518 9.09989 120.458 12.0205 119.807 14.3859C119.26 16.3641 117.797 17.3905 115.937 17.8314C112.941 18.5312 110.077 18.0646 107.352 16.651C107.302 16.6117 107.254 16.568 107.211 16.5204C107.817 15.7226 108.413 14.9201 109.032 14.1433C109.096 14.0663 109.351 14.0943 109.488 14.1433C110.883 14.6868 112.32 15.0251 113.813 14.8431C114.487 14.7776 115.147 14.6036 115.768 14.3276C116.92 13.7747 117.02 12.4777 116.012 11.6729C115.7 11.4368 115.348 11.262 114.974 11.1574C113.808 10.8075 112.618 10.5462 111.464 10.1613C110.72 9.9344 110.012 9.60228 109.358 9.17453C108.77 8.7642 108.28 8.22164 107.928 7.5882C107.575 6.95476 107.368 6.24717 107.322 5.51933C107.277 4.7915 107.394 4.06263 107.665 3.38829C107.936 2.71395 108.354 2.11192 108.887 1.62808C109.784 0.80004 110.904 0.26838 112.101 0.102463C112.244 0.0791358 112.383 0.0371503 112.524 0.00449181H114.277Z" fill="#1F1F1F"/>
<path d="M7.10486 0.00541782L8.09739 0.201368C9.60475 0.49302 11.0314 1.11968 12.2769 2.03724L10.2851 4.36999C9.21512 4.01308 8.23625 3.58618 7.19819 3.36924C6.48131 3.24603 5.74806 3.26425 5.03784 3.42289C4.55408 3.54746 4.11258 3.80472 3.76076 4.16704C3.61052 4.30939 3.4934 4.48451 3.41808 4.67947C3.34275 4.87442 3.31112 5.08423 3.32555 5.29339C3.33997 5.50255 3.40007 5.70572 3.50141 5.88788C3.60274 6.07004 3.74271 6.22655 3.911 6.34583C4.36112 6.66649 4.85834 6.9114 5.38386 7.07131C6.57444 7.44688 7.79007 7.73848 8.98748 8.09072C12.1586 9.02382 13.2672 11.7531 12.6526 14.2748C12.22 16.0617 10.9794 17.1348 9.31529 17.6457C6.55396 18.4948 3.83816 18.2429 1.19065 17.1161C0.785438 16.9458 0.396163 16.7429 6.10352e-05 16.5563V16.47C0.516815 15.8168 1.06317 15.1846 1.54122 14.5035C1.8235 14.1022 2.04887 14.0019 2.52237 14.2025C3.82268 14.7832 5.24944 15.002 6.65867 14.837C7.39471 14.7538 8.11147 14.5424 8.77805 14.2119C9.67497 13.7453 9.80473 12.6839 9.09676 11.9421C8.73738 11.5891 8.30351 11.3257 7.82877 11.1723C6.76567 10.8224 5.65932 10.6124 4.60077 10.2509C3.74865 9.99756 2.93275 9.63051 2.17407 9.15913C1.27012 8.53638 0.609479 7.60686 0.308425 6.53415C0.00737149 5.46144 0.0851954 4.31429 0.528199 3.29459C1.21113 1.72698 2.45863 0.789217 4.04304 0.306337C4.44142 0.185034 4.85345 0.103393 5.25866 0.00541782H7.10486Z" fill="#1F1F1F"/>
<path d="M62.2972 0.00449181L63.2419 0.200442C64.86 0.543129 66.3424 1.37045 67.5011 2.57752L65.3339 4.8916C64.533 4.09196 63.52 3.55182 62.4213 3.33863C61.3226 3.12543 60.187 3.24863 59.1562 3.69283C58.1254 4.13704 57.2452 4.88257 56.6254 5.83633C56.0056 6.79008 55.6738 7.90981 55.6713 9.05568C55.6688 10.2015 55.9958 11.3228 56.6114 12.2793C57.227 13.2359 58.104 13.9855 59.1328 14.4344C60.1617 14.8833 61.2967 15.0117 62.3963 14.8035C63.4959 14.5953 64.5113 14.0598 65.3157 13.2638L67.4829 15.5826C66.3739 16.73 64.9707 17.5323 63.4354 17.8967C58.6048 19.0631 53.7559 15.9932 52.6951 11.0851C52.4226 9.85798 52.4023 8.58622 52.6355 7.35066C52.8687 6.11511 53.3502 4.9428 54.0495 3.9083C54.7488 2.87379 55.6505 1.99973 56.6973 1.34171C57.7442 0.683684 58.9131 0.256093 60.13 0.0861324C60.2084 0.067041 60.2847 0.0396854 60.3576 0.00449181H62.2972Z" fill="#1F1F1F"/>
<path d="M75.9125 12.9233L73.7885 10.7305C75.8297 8.52835 77.915 6.27336 80.0442 3.96549C79.5138 3.8092 78.906 3.5386 78.2617 3.45229C76.09 3.15837 74.2484 3.86519 72.8711 5.62175C71.5326 7.32932 71.2776 9.2865 72.047 11.3043C73.4994 15.1324 78.4985 16.3571 81.4032 13.3012C84.1847 10.3461 86.7705 7.20385 89.1432 3.89551C89.9855 2.70777 91.095 1.74576 92.3775 1.09112C93.66 0.436484 95.0777 0.108535 96.5102 0.135092C97.9428 0.16165 99.348 0.541936 100.607 1.24368C101.865 1.94543 102.94 2.94793 103.74 4.16611C105.725 7.13337 105.882 10.2779 104.286 13.3338C102.756 16.2591 100.266 18.0716 96.8831 18.2326C93.4001 18.4076 90.7481 16.9006 88.8154 13.9707C88.7743 13.9274 88.7429 13.8756 88.7233 13.8187C88.7036 13.7618 88.6963 13.7012 88.7017 13.6411C88.7071 13.5811 88.7251 13.5229 88.7546 13.4706C88.784 13.4184 88.8242 13.3733 88.8723 13.3385C89.5552 12.6177 90.2381 11.8759 90.9484 11.1107L91.192 11.6356C91.7275 12.8223 92.6375 13.7896 93.7752 14.3814C94.9129 14.9732 96.2119 15.1551 97.4629 14.8977C98.7138 14.6403 99.8436 13.9587 100.67 12.9626C101.497 11.9666 101.972 10.7144 102.019 9.4078C102.071 6.58984 100.334 4.19411 97.7481 3.5386C96.9951 3.32073 96.2012 3.29702 95.437 3.46958C94.6728 3.64215 93.9622 4.00563 93.3683 4.52769C92.016 5.67073 90.9666 7.09371 89.883 8.47703C87.9344 11.0333 85.8169 13.4495 83.5454 15.7086C80.9798 18.2116 77.959 18.8251 74.6285 17.808C71.1797 16.7606 68.6756 13.4411 68.5094 9.87668C68.3228 5.82703 70.3465 2.29991 73.8341 0.85127C77.4923 -0.667351 81.7652 0.0907968 84.4537 3.68323C84.5311 3.78587 84.6016 3.89785 84.6381 3.95383L75.9125 12.9233Z" fill="#1F1F1F"/>
</svg>
