<svg width="21" height="20" viewBox="0 0 21 20" fill="none" xmlns="http://www.w3.org/2000/svg">
<path fill-rule="evenodd" clip-rule="evenodd" d="M1.49994 9.9998C1.49994 5.03686 5.53692 0.999878 10.4999 0.999878V1.00003H10.5051C15.468 1.00003 19.505 5.03701 19.505 9.99995C19.505 14.9627 15.468 18.9999 10.5051 18.9999C8.67438 18.9999 6.97596 18.455 5.55275 17.5132L2.09246 18.6188L3.21418 15.275C2.13487 13.7934 1.49994 11.968 1.49994 9.9998ZM7.41531 5.12685C7.67976 5.1376 7.81207 5.15343 7.98663 5.57139C8.04302 5.70749 8.12049 5.89543 8.20538 6.10138C8.44715 6.68788 8.74914 7.42051 8.79611 7.51843C8.85958 7.65073 8.92319 7.83066 8.83315 8.00522C8.75438 8.17261 8.68479 8.25303 8.56896 8.38689C8.56028 8.39693 8.55134 8.40726 8.54211 8.41796C8.48549 8.48365 8.42986 8.54254 8.37436 8.60127C8.30019 8.67978 8.22627 8.75802 8.15058 8.85189C8.14847 8.85438 8.14634 8.85687 8.14422 8.85936C8.02433 9.00003 7.89403 9.15291 8.04486 9.41276C8.19822 9.67198 8.72728 10.5343 9.50511 11.2273C10.4282 12.0483 11.1906 12.3566 11.5345 12.4956C11.5651 12.508 11.5924 12.5191 11.6163 12.529C11.8331 12.619 12.0924 12.5978 12.2512 12.4285C12.4232 12.243 12.63 11.9529 12.8452 11.651C12.8816 11.5999 12.9182 11.5486 12.9549 11.4973C13.1347 11.2433 13.3622 11.2115 13.6003 11.3014C13.8437 11.3861 15.1296 12.021 15.394 12.1533C15.448 12.1804 15.4983 12.2045 15.5446 12.2268C15.7252 12.3136 15.8461 12.3718 15.8966 12.4602C15.9602 12.5713 15.9602 13.0951 15.7433 13.709C15.5263 14.3225 14.6638 14.8307 13.976 14.9788C13.5052 15.0793 12.8913 15.1588 10.8226 14.3016C8.37227 13.287 6.72981 10.9062 6.39573 10.4219C6.36913 10.3833 6.35083 10.3568 6.34107 10.3439C6.33735 10.3388 6.33294 10.3328 6.32786 10.3258C6.15977 10.096 5.27236 8.88276 5.27236 7.62952C5.27236 6.37467 5.8922 5.74475 6.16979 5.46264C6.1778 5.4545 6.18553 5.44665 6.19294 5.43909C6.40991 5.21689 6.76963 5.1164 7.11368 5.1164C7.2143 5.11689 7.31489 5.12038 7.41531 5.12685Z" fill="white"/>
</svg>
